PathFileType	4	(X/Y/Z)	/Users/itak/Documents/Research/Walk-IL/dataset/trc/00188_00008.trc
DataRate	CameraRate	NumFrames	NumMarkers	Units	OrigDataRate	OrigDataStartFrame	OrigNumFrames
100.000000	100.000000	4	53	mm	100.000000	507	812
Frame#	Time	RPSI			LPSI			L3			STRN			T10			C7			CLAV			RBAK			LBAK			LSHO			LUPA			LAEL			LAOL			LWTS			LWPS			LFRA			LIFD			LHPS			LHTS			RSHO			RUPA			RAEL			RAOL			RWTS			RWPS			RFRA			RIFD			RHTS			RHPS			RBHD			LFHD			RFHD			LBHD			LHIP			RHIP			RASI			LASI			LKNE			LTHI			LANK			LTIP			LTOE			LMT1			LMT5			LHEE			RKNE			RTHI			RANK			RTIP			RTOE			RMT1			RMT5			RHEE			
		X1	Y1	Z1	X2	Y2	Z2	X3	Y3	Z3	X4	Y4	Z4	X5	Y5	Z5	X6	Y6	Z6	X7	Y7	Z7	X8	Y8	Z8	X9	Y9	Z9	X10	Y10	Z10	X11	Y11	Z11	X12	Y12	Z12	X13	Y13	Z13	X14	Y14	Z14	X15	Y15	Z15	X16	Y16	Z16	X17	Y17	Z17	X18	Y18	Z18	X19	Y19	Z19	X20	Y20	Z20	X21	Y21	Z21	X22	Y22	Z22	X23	Y23	Z23	X24	Y24	Z24	X25	Y25	Z25	X26	Y26	Z26	X27	Y27	Z27	X28	Y28	Z28	X29	Y29	Z29	X30	Y30	Z30	X31	Y31	Z31	X32	Y32	Z32	X33	Y33	Z33	X34	Y34	Z34	X35	Y35	Z35	X36	Y36	Z36	X37	Y37	Z37	X38	Y38	Z38	X39	Y39	Z39	X40	Y40	Z40	X41	Y41	Z41	X42	Y42	Z42	X43	Y43	Z43	X44	Y44	Z44	X45	Y45	Z45	X46	Y46	Z46	X47	Y47	Z47	X48	Y48	Z48	X49	Y49	Z49	X50	Y50	Z50	X51	Y51	Z51	X52	Y52	Z52	X53	Y53	Z53	

508	5.07	762.7041015625	1038.766723632812	-525.24755859375	863.592529296875	1048.740600585938	-594.6370849609375	808.980224609375	1080.8681640625	-556.5853271484375	957.1647338867188	1290.10888671875	-341.2580261230469	788.6109619140625	1244.08837890625	-589.49658203125	838.6688842773438	1511.166625976562	-531.379638671875	950.6041259765625	1404.1494140625	-366.5994262695312	709.0292358398438	1337.87158203125	-532.67041015625	914.75390625	1489.960205078125	-595.2213134765625	1022.841857910156	1478.439453125	-578.4808349609375	1057.500854492188	1351.913818359375	-659.507568359375	1074.404418945312	1138.253784179688	-682.9720458984375	988.7192993164062	1118.613159179688	-665.5203857421875	1141.188354492188	901.66015625	-607.8866577148438	1106.509643554688	886.2821655273438	-693.5269775390625	1095.238037109375	1029.041259765625	-693.9058227539062	1134.786010742188	718.662109375	-604.4778442382812	1122.892456054688	816.709716796875	-683.7976684570312	1165.555908203125	825.467529296875	-625.0231323242188	726.9461059570312	1487.151123046875	-378.6659545898438	657.260009765625	1423.037231445312	-362.5453491210938	582.6797485351562	1140.846923828125	-365.5705871582031	669.3788452148438	1128.609985351562	-414.308837890625	665.8998413085938	919.987548828125	-236.9875335693359	591.5305786132812	896.83740234375	-286.4266052246094	579.2662353515625	1067.7685546875	-332.1032104492188	696.8693237304688	732.04150390625	-221.9322967529297	670.6150512695312	827.191650390625	-205.8481140136719	609.8490600585938	815.8526000976562	-258.1016540527344	813.648193359375	1661.64990234375	-439.6575927734375	988.4595336914062	1700.23193359375	-315.0359191894531	867.5966186523438	1685.368408203125	-274.0580139160156	940.2297973632812	1685.754516601562	-487.8324584960938	1024.340087890625	1002.1435546875	-570.893310546875	739.9620971679688	983.6389770507812	-330.8952941894531	829.0757446289062	1023.694702148438	-290.4315185546875	1042.678955078125	1033.65966796875	-434.5816040039062	1073.703491210938	504.4176635742188	-444.9570922851562	1078.388427734375	647.088134765625	-487.8954772949219	1046.543090820312	35.34440231323242	-527.97705078125	1074.228515625	273.1890563964844	-481.952880859375	1114.092651367188	36.61389541625977	-317.4354248046875	1050.761474609375	38.81081390380859	-342.9659118652344	1126.2080078125	28.90164375305176	-447.4566040039062	962.308349609375	37.0037841796875	-545.089599609375	828.4337768554688	483.1791687011719	-275.1438903808594	790.9814453125	757.1199340820312	-270.5111694335938	624.2200317382812	180.9468078613281	-612.6365966796875	810.6015014648438	372.68359375	-330.9913330078125	733.3717041015625	58.45975875854492	-479.0024719238281	752.2298583984375	79.60835266113281	-540.7802124023438	630.7109375	103.6481094360352	-526.5742797851562	667.0723266601562	213.9334716796875	-675.9649658203125	
509	5.08	768.2345581054688	1039.578857421875	-520.1195678710938	870.5753784179688	1049.39794921875	-588.5494995117188	815.9751586914062	1081.681396484375	-551.1085205078125	961.7398071289062	1290.888793945312	-334.0234069824219	796.5160522460938	1245.206665039062	-584.2294921875	845.82666015625	1512.092041015625	-525.0823974609375	955.4920654296875	1405.037353515625	-359.0938415527344	716.278564453125	1338.857421875	-528.3836669921875	922.7737426757812	1491.08154296875	-587.9400024414062	1030.552856445312	1479.705444335938	-569.6996459960938	1066.984619140625	1353.37060546875	-650.1410522460938	1085.700927734375	1139.777954101562	-672.9935913085938	999.8194580078125	1119.671752929688	-657.2858276367188	1152.804565429688	904.1546630859375	-595.2109985351562	1120.061645507812	887.9144897460938	-681.4505615234375	1107.599731445312	1030.605224609375	-682.931640625	1146.929443359375	719.5758056640625	-593.7291870117188	1136.903076171875	818.5390625	-670.9805908203125	1178.281005859375	828.1329345703125	-611.4014892578125	731.9838256835938	1487.870361328125	-374.164306640625	662.1539916992188	1423.733032226562	-359.1567993164062	587.7418212890625	1141.47265625	-363.4458618164062	674.582763671875	1129.372192382812	-410.9635620117188	669.703857421875	921.7312622070312	-232.3233795166016	596.4306640625	897.6098022460938	-283.2059631347656	584.0033569335938	1068.361328125	-329.8193969726562	702.1349487304688	734.36376953125	-214.8695678710938	674.4262084960938	829.33740234375	-200.2847137451172	615.0093994140625	816.900390625	-253.8475341796875	819.7265625	1662.672973632812	-432.6393432617188	993.23876953125	1700.337646484375	-306.0215454101562	871.9414672851562	1685.48486328125	-266.408935546875	946.9312133789062	1686.880737304688	-479.4631652832031	1030.888427734375	1002.32666015625	-563.854248046875	745.1183471679688	985.8107299804688	-324.9674987792969	833.9638671875	1025.046875	-284.7939758300781	1048.822265625	1034.175415039062	-427.4555358886719	1075.651733398438	503.6033935546875	-441.9705505371094	1081.81982421875	646.5565185546875	-483.4711303710938	1046.2041015625	35.74789810180664	-527.6246948242188	1074.94384765625	272.64501953125	-480.1702270507812	1114.184936523438	36.45070648193359	-317.0120239257812	1050.581176757812	38.4665641784668	-342.7452697753906	1125.988891601562	29.22821617126465	-447.2613830566406	961.9189453125	36.96932601928711	-544.7764282226562	839.7618408203125	486.8243103027344	-260.3180236816406	797.4581909179688	760.2371215820312	-261.3406982421875	644.4495239257812	174.4560546875	-593.6094970703125	824.3001098632812	375.1398010253906	-314.32177734375	755.0568237304688	57.96437072753906	-455.2545166015625	773.9353637695312	77.97349548339844	-517.5675048828125	651.9314575195312	100.0343399047852	-505.0078430175781	687	206.3876495361328	-657.6377563476562	
510	5.09	774.140380859375	1040.241088867188	-514.8103637695312	877.4426879882812	1049.952270507812	-582.344970703125	822.8518676757812	1082.373779296875	-545.5586547851562	966.2821044921875	1291.614013671875	-326.7949523925781	804.329833984375	1246.161987304688	-578.87841796875	852.8018798828125	1512.89794921875	-518.8018188476562	960.2802734375	1405.858520507812	-351.6397094726562	723.4254150390625	1339.693237304688	-524.0308227539062	930.5933837890625	1492.11279296875	-580.7102661132812	1038.024291992188	1480.916381835938	-561.0099487304688	1076.197021484375	1354.753784179688	-640.8411865234375	1096.8154296875	1141.247924804688	-663.0044555664062	1010.802917480469	1120.60791015625	-648.9204711914062	1164.417846679688	906.7549438476562	-582.5054321289062	1133.502807617188	889.54052734375	-669.2021484375	1119.79833984375	1032.123657226562	-671.883056640625	1159.121948242188	720.6531982421875	-582.6941528320312	1150.805053710938	820.371826171875	-657.9546508789062	1190.948608398438	830.83984375	-597.6647338867188	736.9181518554688	1488.469970703125	-369.6593627929688	666.9877319335938	1424.29833984375	-355.7313842773438	592.8128662109375	1141.948974609375	-361.3181457519531	679.7925415039062	1130.026123046875	-407.611572265625	673.4015502929688	923.23681640625	-227.8208770751953	601.3060913085938	898.2164916992188	-280.0899658203125	588.7329711914062	1068.80517578125	-327.5765991210938	707.2274780273438	736.4533081054688	-208.0840759277344	678.0896606445312	831.2255859375	-194.9446258544922	620.083740234375	817.7530517578125	-249.7885894775391	825.6024780273438	1663.585571289062	-425.6629943847656	997.7813110351562	1700.34326171875	-297.0355529785156	876.0704345703125	1685.476318359375	-258.8170166015625	953.42578125	1687.93505859375	-471.1134643554688	1037.338989257812	1002.353820800781	-556.8145751953125	750.2186279296875	987.8053588867188	-319.0377502441406	838.83203125	1026.282348632812	-279.0571594238281	1054.894409179688	1034.546508789062	-420.3330383300781	1077.539428710938	502.7931518554688	-439.123779296875	1085.105712890625	645.9550170898438	-479.2228393554688	1045.837890625	36.12275695800781	-527.261474609375	1075.612548828125	272.1082763671875	-478.4476623535156	1114.273681640625	36.33646392822266	-316.616455078125	1050.426147460938	38.1973762512207	-342.5482788085938	1125.769653320312	29.55437088012695	-447.0701599121094	961.4235229492188	36.77787017822266	-544.4804077148438	850.7197265625	490.5723571777344	-245.660400390625	803.7607421875	763.419677734375	-252.1751556396484	665.011962890625	167.0013122558594	-573.90087890625	837.8053588867188	377.553466796875	-297.6756286621094	777.410400390625	57.33472061157227	-430.9815368652344	796.2562866210938	76.20498657226562	-493.7622375488281	673.6959228515625	95.66259765625	-482.8378601074219	707.1432495117188	197.9898223876953	-638.6018676757812	
511	5.100000000000001	780.2705078125	1040.780517578125	-509.3518981933594	884.1998291015625	1050.406005859375	-576.0408935546875	829.6024780273438	1082.950927734375	-539.941650390625	970.79296875	1292.2529296875	-319.5571594238281	812.04931640625	1246.954833984375	-573.4517822265625	859.616943359375	1513.58349609375	-512.5250244140625	964.9791259765625	1406.58251953125	-344.2168273925781	730.4808959960938	1340.37353515625	-519.6144409179688	938.2364501953125	1493.052368164062	-573.5177001953125	1045.28076171875	1482.047485351562	-552.3902587890625	1085.155151367188	1356.045776367188	-631.5953369140625	1107.729614257812	1142.649291992188	-653.0181274414062	1021.640258789062	1121.413452148438	-640.4387817382812	1175.994750976562	909.4263916015625	-569.760986328125	1146.804809570312	891.1505126953125	-656.7962646484375	1131.813110351562	1033.583984375	-660.7804565429688	1171.6533203125	722.4437866210938	-570.4479370117188	1164.577758789062	822.2061767578125	-644.7323608398438	1203.535522460938	833.575439453125	-583.8178100585938	741.7654418945312	1488.934326171875	-365.1262817382812	671.7723999023438	1424.716430664062	-352.2466430664062	597.8864135742188	1142.260131835938	-359.13671875	685.1015014648438	1130.547241210938	-404.1862487792969	677.0199584960938	924.4683837890625	-223.4633331298828	606.1441040039062	898.6483154296875	-277.0320129394531	593.4578247070312	1069.0888671875	-325.3247375488281	712.1202392578125	738.2516479492188	-201.6287078857422	681.6395874023438	832.8095092773438	-189.8360748291016	625.0562744140625	818.3955688476562	-245.8973388671875	831.2842407226562	1664.37158203125	-418.7399597167969	1002.096252441406	1700.261474609375	-288.0993347167969	879.9948120117188	1685.355224609375	-251.2935333251953	959.707763671875	1688.89697265625	-462.7940673828125	1043.69091796875	1002.225219726562	-549.7637939453125	755.2576904296875	989.5808715820312	-313.1458435058594	843.684814453125	1027.394653320312	-273.1993713378906	1060.882446289062	1034.768310546875	-413.2015380859375	1079.416259765625	501.9934997558594	-436.4091186523438	1088.288818359375	645.3136596679688	-475.1130065917969	1045.464233398438	36.46181869506836	-526.902587890625	1076.278564453125	271.5914306640625	-476.81103515625	1114.367797851562	36.27558517456055	-316.2700500488281	1050.321533203125	38.03915786743164	-342.3768920898438	1125.566650390625	29.85550880432129	-446.8961181640625	960.9026489257812	36.5282096862793	-544.2308959960938	861.2738647460938	494.3876647949219	-231.1715240478516	809.9044799804688	766.6563720703125	-242.998291015625	685.8817749023438	158.7576599121094	-553.5016479492188	851.0523681640625	379.9278564453125	-281.0672912597656	800.1400146484375	56.71161270141602	-406.09912109375	818.9657592773438	74.38389587402344	-469.2815856933594	695.8236694335938	90.75978851318359	-460.0261840820312	727.548095703125	188.8348236083984	-618.8516845703125	
